<svg width="344" height="180" viewBox="0 0 344 180" fill="none" xmlns="http://www.w3.org/2000/svg">
<path d="M138.531 99.4688L141.156 100.438C140.677 101.083 140.135 101.708 139.531 102.312C136.573 105.292 132.99 106.781 128.781 106.781C124.615 106.781 121.042 105.302 118.062 102.344C115.104 99.3646 113.625 95.7812 113.625 91.5938C113.625 87.4062 115.104 83.8333 118.062 80.875C121.042 77.9167 124.615 76.4375 128.781 76.4375C132.99 76.4375 136.573 77.9167 139.531 80.875C140.135 81.4792 140.677 82.1042 141.156 82.75L138.531 83.7188C138.26 83.3854 137.969 83.0521 137.656 82.7188C135.198 80.2812 132.24 79.0625 128.781 79.0625C125.344 79.0625 122.396 80.2917 119.938 82.75C117.5 85.1875 116.281 88.1354 116.281 91.5938C116.281 95.0521 117.5 98.0104 119.938 100.469C122.396 102.906 125.344 104.125 128.781 104.125C132.24 104.125 135.198 102.896 137.656 100.438C137.969 100.125 138.26 99.8021 138.531 99.4688ZM175.094 106H172.594V100.469C172.115 101.115 171.594 101.729 171.031 102.312C168.073 105.292 164.49 106.781 160.281 106.781C156.115 106.781 152.542 105.302 149.562 102.344C146.604 99.3646 145.125 95.7917 145.125 91.625C145.125 87.4167 146.604 83.8333 149.562 80.875C152.542 77.9167 156.115 76.4375 160.281 76.4375C164.49 76.4375 168.073 77.9167 171.031 80.875C171.594 81.4583 172.115 82.0729 172.594 82.7188V78.875H175.094V106ZM172.594 94.0625V89.1562C172.135 86.7188 170.99 84.5833 169.156 82.75C166.698 80.2917 163.74 79.0625 160.281 79.0625C156.823 79.0625 153.865 80.2917 151.406 82.75C148.969 85.2083 147.75 88.1667 147.75 91.625C147.75 95.0833 148.969 98.0312 151.406 100.469C153.865 102.906 156.823 104.125 160.281 104.125C163.74 104.125 166.698 102.896 169.156 100.438C170.99 98.6042 172.135 96.4792 172.594 94.0625ZM180.75 78.875H183.25V82.6875C183.708 82.0625 184.229 81.4583 184.812 80.875C187.771 77.9375 191.344 76.4688 195.531 76.4688C199.719 76.4688 203.292 77.9479 206.25 80.9062C209.208 83.8438 210.688 87.4167 210.688 91.625C210.688 95.7917 209.208 99.3646 206.25 102.344C203.292 105.302 199.719 106.781 195.531 106.781C191.344 106.781 187.771 105.292 184.812 102.312C184.229 101.729 183.708 101.125 183.25 100.5V116.344H180.75V78.875ZM183.25 89.0312V94.2188C183.708 96.5938 184.844 98.6771 186.656 100.469C189.115 102.927 192.073 104.156 195.531 104.156C198.99 104.156 201.938 102.938 204.375 100.5C206.833 98.0417 208.062 95.0833 208.062 91.625C208.062 88.1667 206.833 85.2083 204.375 82.75C201.938 80.2917 198.99 79.0625 195.531 79.0625C192.073 79.0625 189.115 80.2917 186.656 82.75C184.844 84.5625 183.708 86.6562 183.25 89.0312ZM215.438 78.875H217.938V82.6875C218.396 82.0625 218.917 81.4583 219.5 80.875C222.458 77.9375 226.031 76.4688 230.219 76.4688C234.406 76.4688 237.979 77.9479 240.938 80.9062C243.896 83.8438 245.375 87.4167 245.375 91.625C245.375 95.7917 243.896 99.3646 240.938 102.344C237.979 105.302 234.406 106.781 230.219 106.781C226.031 106.781 222.458 105.292 219.5 102.312C218.917 101.729 218.396 101.125 217.938 100.5V116.344H215.438V78.875ZM217.938 89.0312V94.2188C218.396 96.5938 219.531 98.6771 221.344 100.469C223.802 102.927 226.76 104.156 230.219 104.156C233.677 104.156 236.625 102.938 239.062 100.5C241.521 98.0417 242.75 95.0833 242.75 91.625C242.75 88.1667 241.521 85.2083 239.062 82.75C236.625 80.2917 233.677 79.0625 230.219 79.0625C226.76 79.0625 223.802 80.2917 221.344 82.75C219.531 84.5625 218.396 86.6562 217.938 89.0312ZM257.375 91.4375C255.271 90.2917 253.812 89.3125 253 88.5C251.729 87.2292 251.094 85.6979 251.094 83.9062C251.094 82.1146 251.729 80.5833 253 79.3125C254.271 78.0208 255.802 77.375 257.594 77.375C259.385 77.375 260.875 77.9688 262.062 79.1562C263.208 80.3021 263.781 81.6146 263.781 83.0938V83.2188L261.625 84.0938C261.438 82.6979 261 81.6458 260.312 80.9375C259.625 80.2292 258.719 79.875 257.594 79.875C256.49 79.875 255.542 80.2708 254.75 81.0625C253.958 81.8542 253.562 82.8021 253.562 83.9062C253.562 85.0104 253.958 85.9583 254.75 86.75C255.208 87.2292 256.177 87.9375 257.656 88.875C260.01 90.1458 261.688 91.2812 262.688 92.2812C264.25 93.8646 265.031 95.75 265.031 97.9375C265.031 100.188 264.25 102.104 262.688 103.688C261.125 105.25 259.229 106.031 257 106.031C254.771 106.031 252.875 105.25 251.312 103.688C249.75 102.104 248.969 100.375 248.969 98.5L251.438 97.875C251.438 99.4792 251.979 100.833 253.062 101.938C254.167 103.021 255.479 103.562 257 103.562C258.521 103.562 259.833 103.021 260.938 101.938C262.042 100.833 262.594 99.5 262.594 97.9375C262.594 96.4167 262.042 95.1146 260.938 94.0312C260.354 93.4479 259.167 92.5833 257.375 91.4375ZM281.281 106.375C277.885 106.375 275.188 105.375 273.188 103.375C271.188 101.375 270.156 98.8438 270.094 95.7812V78.8438H272.594V95.5625C272.594 97.8542 273.427 99.8125 275.094 101.438C276.74 103.083 278.792 103.906 281.25 103.906C283.542 103.906 285.51 103.094 287.156 101.469C288.823 99.8229 289.656 97.8542 289.656 95.5625V78.8438H292.156V95.7812C292.094 98.8438 291.062 101.375 289.062 103.375C287.062 105.375 284.469 106.375 281.281 106.375ZM300.812 61.8125V106H298.312V61.8125H300.812ZM309.062 87.6875H332.875C332.292 85.7917 331.302 84.1458 329.906 82.75C327.448 80.2917 324.49 79.0625 321.031 79.0625C317.573 79.0625 314.615 80.2917 312.156 82.75C310.698 84.2292 309.667 85.875 309.062 87.6875ZM308.594 90.2188C308.531 90.6562 308.5 91.125 308.5 91.625C308.5 95.0833 309.719 98.0312 312.156 100.469C314.615 102.906 317.573 104.125 321.031 104.125C324.49 104.125 327.448 102.896 329.906 100.438C330.323 100.021 330.719 99.5833 331.094 99.125L333.75 100.062C333.438 100.583 332.781 101.333 331.781 102.312C328.823 105.292 325.24 106.781 321.031 106.781C316.865 106.781 313.292 105.302 310.312 102.344C307.354 99.3646 305.875 95.7917 305.875 91.625C305.875 87.4167 307.354 83.8333 310.312 80.875C313.292 77.9167 316.865 76.4375 321.031 76.4375C325.24 76.4375 328.823 77.9167 331.781 80.875C334.385 83.5 335.688 86.6146 335.688 90.2188H308.594Z" fill="white"/>
<path d="M9.71182 148.328L59.5609 61.9998L109.41 148.328H9.71182Z" stroke="white" stroke-width="2"/>
<path d="M109.41 30.7761L59.5609 117.105L9.71184 30.7761L109.41 30.7761Z" stroke="white" stroke-width="2"/>
</svg>
